<svg width="108" height="102" viewBox="0 0 108 102" xmlns="http://www.w3.org/2000/svg"><title>handshake</title><g fill="#153256" fill-rule="evenodd"><path d="M13.48 29.897c.967 0 1.756.79 1.756 1.758a1.76 1.76 0 0 1-1.756 1.759 1.76 1.76 0 0 1-1.756-1.759 1.76 1.76 0 0 1 1.756-1.758zm0 7.034c2.904 0 5.268-2.367 5.268-5.276s-2.364-5.276-5.268-5.276c-2.905 0-5.268 2.367-5.268 5.276s2.363 5.276 5.268 5.276z"/><path d="M77.426 71.5l-18.89 18.918c-1.277 1.278-3.454 1.313-4.8.135l7.311-7.321a5.464 5.464 0 0 0 1.604-3.881c0-2.962-2.357-5.366-5.288-5.47a5.47 5.47 0 0 0-5.268-5.275 5.47 5.47 0 0 0-5.269-5.276c-.103-2.935-2.506-5.296-5.461-5.296a5.442 5.442 0 0 0-3.876 1.608L31.041 66.1l-7.025-7.035v-3.82l22.83-22.862 2.27 2.274c.329.33.776.515 1.242.515h6.297l1.751 1.754L45.499 49.75a1.761 1.761 0 0 0 .005 2.501c4.617 4.555 12.105 4.527 16.686-.065l.46-.459 14.776 14.797a3.497 3.497 0 0 1 1.03 2.489c0 .94-.366 1.821-1.03 2.486zm-30.58 16.218c0-.527.205-1.022.576-1.394l8.355-8.368a1.96 1.96 0 0 1 1.393-.577 1.973 1.973 0 0 1 1.392 3.366l-8.355 8.368a1.96 1.96 0 0 1-1.393.577 1.973 1.973 0 0 1-1.968-1.972zm-5.269-5.276c0-.527.206-1.021.576-1.394l8.356-8.368a1.96 1.96 0 0 1 1.392-.577 1.973 1.973 0 0 1 1.393 3.366l-8.355 8.368a1.96 1.96 0 0 1-1.393.577 1.973 1.973 0 0 1-1.969-1.972zm-5.268-5.275c0-.528.206-1.022.576-1.395l8.356-8.368a1.96 1.96 0 0 1 1.392-.576 1.973 1.973 0 0 1 1.393 3.366L39.67 78.56a1.96 1.96 0 0 1-1.392.577 1.973 1.973 0 0 1-1.969-1.971zm-5.268-5.276c0-.528.205-1.022.576-1.395l8.355-8.367a1.96 1.96 0 0 1 1.393-.577 1.973 1.973 0 0 1 1.392 3.366l-8.355 8.367a1.96 1.96 0 0 1-1.393.577 1.973 1.973 0 0 1-1.968-1.971zm8.78-46.542l4.542 4.548-22.155 22.186-4.738-4.349L39.82 25.35zm67.974 16.343l-2.484-2.487-25.13 25.166c-.094-.107-.17-.229-.272-.333L65.134 49.241l2.27-2.274-2.483-2.486-5.214 5.221c-2.794 2.796-7.119 3.183-10.338 1.16l12.762-12.68.003-.006L95.5 4.762l-2.483-2.486-32.123 32.168-2.27-2.274a1.75 1.75 0 0 0-1.242-.515h-6.297L23.502 4.033l-2.483 2.486 16.32 16.343-22.461 22.493L2.374 33.876 0 36.47l20.504 18.821v4.502c0 .466.185.915.515 1.243l7.595 7.606a5.438 5.438 0 0 0-1.085 3.249c0 2.961 2.356 5.365 5.287 5.469a5.47 5.47 0 0 0 5.268 5.276 5.47 5.47 0 0 0 5.269 5.276c.103 2.935 2.506 5.295 5.461 5.295.747 0 1.47-.153 2.137-.436l.134.133a6.97 6.97 0 0 0 4.968 2.062c1.877 0 3.64-.732 4.966-2.062l18.89-18.917a6.992 6.992 0 0 0 1.929-6.301l25.957-25.994zM12.245 73.755l-3.082 1.688a51.22 51.22 0 0 0 1.858 3.129l2.954-1.903a47.054 47.054 0 0 1-1.73-2.914M36.072 98.798c1.126.422 2.286.809 3.452 1.15l.987-3.375a46.66 46.66 0 0 1-3.208-1.07l-1.231 3.295M23.344 91.826a50.63 50.63 0 0 0 2.987 2.08l1.9-2.957c-.945-.61-1.88-1.261-2.778-1.936l-2.11 2.813M29.459 95.77a51.533 51.533 0 0 0 3.252 1.633l1.463-3.197a49.216 49.216 0 0 1-3.03-1.521l-1.685 3.084M17.852 87.055c.854.857 1.75 1.692 2.661 2.483l2.302-2.657a48.105 48.105 0 0 1-2.478-2.31l-2.485 2.484M15.903 79.45l-2.81 2.11c.727.97 1.495 1.923 2.282 2.833l2.653-2.306a50.294 50.294 0 0 1-2.125-2.638M6.575 54.396l-3.504.25c.085 1.204.215 2.421.385 3.619l3.477-.496a48.476 48.476 0 0 1-.358-3.373M6.575 47.616l-3.504-.25A50.845 50.845 0 0 0 2.943 51v.005L6.455 51c0-1.133.04-2.272.12-3.384M7.53 61.102l-3.431.747c.256 1.183.558 2.37.897 3.528l3.37-.989a49.455 49.455 0 0 1-.836-3.286M9.434 67.601l-3.291 1.231c.421 1.13.888 2.26 1.39 3.36l3.195-1.462a47.86 47.86 0 0 1-1.294-3.129M95.491 73.762l3.082 1.688a51.666 51.666 0 0 0 1.632-3.257l-3.193-1.465a48.388 48.388 0 0 1-1.52 3.034M91.826 79.462l2.81 2.112a50.916 50.916 0 0 0 2.08-2.992l-2.954-1.904a48.166 48.166 0 0 1-1.936 2.784M87.39 84.58l2.482 2.49a50.712 50.712 0 0 0 2.48-2.665l-2.654-2.306a46.664 46.664 0 0 1-2.308 2.482M98.31 67.594l3.289 1.231c.423-1.13.808-2.295 1.149-3.457l-3.37-.988a48.175 48.175 0 0 1-1.068 3.214M100.21 61.096l3.433.744c.255-1.176.47-2.381.641-3.584l-3.475-.496a47.827 47.827 0 0 1-.599 3.336M82.275 89.023l2.107 2.814a51.467 51.467 0 0 0 2.83-2.285l-2.301-2.659a48.413 48.413 0 0 1-2.636 2.13M43.049 100.846c1.175.255 2.378.472 3.579.642l.495-3.48a48.679 48.679 0 0 1-3.331-.598l-.743 3.436M101.167 54.389l3.503.248c.085-1.201.127-2.425.127-3.637h-3.512c0 1.13-.039 2.272-.118 3.389M57.258 98.363l.249 3.509a50.961 50.961 0 0 0 3.614-.386l-.495-3.482c-1.114.159-2.246.28-3.368.36M50.49 98.365l-.248 3.508c1.198.085 2.42.127 3.63.127l-.002-3.517a47.94 47.94 0 0 1-3.38-.118M76.59 92.686l1.686 3.087a51.437 51.437 0 0 0 3.123-1.86l-1.9-2.957a47.632 47.632 0 0 1-2.909 1.73M70.446 95.5l1.227 3.296a51.046 51.046 0 0 0 3.355-1.393l-1.46-3.199a47.11 47.11 0 0 1-3.122 1.296M63.954 97.408l.746 3.437a50.89 50.89 0 0 0 3.523-.9l-.987-3.374c-1.077.315-2.18.596-3.282.837"/><path d="M77.558 6.183a51.401 51.401 0 0 0-3.203-1.723l-1.547 3.158a47.05 47.05 0 0 1 2.98 1.604l1.77-3.039M53.87 3.517c.927 0 1.833.021 2.718.064l.166-3.514A61.607 61.607 0 0 0 53.87 0l-.734.005.05 3.518.684-.006M71.008 2.984A41.78 41.78 0 0 0 67.54 1.8l-.986 3.377c1.063.31 2.13.675 3.174 1.083l1.28-3.275M63.98.927A45.852 45.852 0 0 0 60.373.36l-.408 3.492c1.135.134 2.255.31 3.33.524l.685-3.45M36.659 6.74L35.38 3.465c-1.126.44-2.248.926-3.336 1.444l1.504 3.178a48.205 48.205 0 0 1 3.11-1.345M43.12 4.743l-.795-3.426c-1.178.275-2.36.593-3.51.95l1.038 3.36c1.07-.332 2.169-.629 3.266-.884M49.803 3.69L49.506.185c-1.206.103-2.422.25-3.61.438l.548 3.475a46.21 46.21 0 0 1 3.359-.408"/></g></svg>