<svg width="73" height="95" viewBox="0 0 73 95" xmlns="http://www.w3.org/2000/svg" xmlns:xlink="http://www.w3.org/1999/xlink"><title>list</title><defs><path id="a" d="M.012 94.988H73V0H.012z"/></defs><g fill="none" fill-rule="evenodd"><g><mask id="b" fill="#fff"><use xlink:href="#a"/></mask><path d="M69.826 87.083c0 2.62-2.136 4.75-4.76 4.75H7.934c-2.625 0-4.761-2.13-4.761-4.75V7.917c0-2.62 2.136-4.75 4.76-4.75h47.61v12.666c0 .876.71 1.584 1.586 1.584h12.696v69.666zM58.717 5.406l8.865 8.844h-8.865V5.405zm13.816 9.306L58.254.466A1.58 1.58 0 0 0 57.13 0H7.935C3.56 0 0 3.551 0 7.917v79.166C0 91.45 3.56 95 7.935 95h57.13C69.44 95 73 91.449 73 87.083v-71.25c0-.438-.178-.834-.467-1.12z" fill="#153256" mask="url(#b)"/></g><path d="M14.283 31.667a3.173 3.173 0 0 1-3.174-3.167 3.173 3.173 0 0 1 6.348 0 3.173 3.173 0 0 1-3.174 3.167zm0-9.5c-3.501 0-6.348 2.84-6.348 6.333 0 3.493 2.847 6.333 6.348 6.333 3.5 0 6.347-2.84 6.347-6.333 0-3.493-2.847-6.333-6.347-6.333zM14.283 49.083a3.173 3.173 0 0 1-3.174-3.166 3.173 3.173 0 0 1 6.348 0 3.173 3.173 0 0 1-3.174 3.166zm0-9.5c-3.501 0-6.348 2.84-6.348 6.334 0 3.492 2.847 6.333 6.348 6.333 3.5 0 6.347-2.84 6.347-6.333 0-3.493-2.847-6.334-6.347-6.334zM14.283 66.5a3.173 3.173 0 0 1-3.174-3.167 3.173 3.173 0 0 1 6.348 0 3.173 3.173 0 0 1-3.174 3.167zm0-9.5c-3.501 0-6.348 2.84-6.348 6.333 0 3.493 2.847 6.334 6.348 6.334 3.5 0 6.347-2.84 6.347-6.334 0-3.492-2.847-6.333-6.347-6.333zM14.283 83.917a3.173 3.173 0 0 1-3.174-3.167 3.173 3.173 0 0 1 6.348 0 3.173 3.173 0 0 1-3.174 3.167zm0-9.5c-3.501 0-6.348 2.84-6.348 6.333 0 3.493 2.847 6.333 6.348 6.333 3.5 0 6.347-2.84 6.347-6.333 0-3.493-2.847-6.333-6.347-6.333zM23.804 33.25h41.261v-3.167h-41.26zM25.391 11.083H47.61V7.917H25.39zM20.63 17.417h31.74V14.25H20.63zM23.804 50.667h41.261V47.5h-41.26zM23.804 68.083h41.261v-3.166h-41.26zM23.804 85.5h41.261v-3.167h-41.26zM36.5 26.917h3.174V23.75H36.5zM30.152 26.917h3.174V23.75h-3.174zM23.804 26.917h3.174V23.75h-3.174z" fill="#153256"/></g></svg>