<svg width="189" height="37" viewBox="0 0 189 37" xmlns="http://www.w3.org/2000/svg"><title>Group 9</title><g fill="#FFF" fill-rule="evenodd"><path d="M7.307 15.186c1.556 0 2.475-.687 2.475-3.51v-.407c0-2.722-.842-3.383-2.322-3.383-.893 0-1.581.254-1.964.508v6.309c.383.254 1.071.483 1.811.483zM1.16 21.724V4.808h4.183v1.094h.128c.867-.84 2.04-1.323 3.8-1.323 2.551 0 4.95 1.5 4.95 6.283v.305c0 5.164-2.475 6.97-6.072 6.97-1.326 0-2.168-.254-2.653-.458v4.045H1.16zm14.514-3.841h4.362V9.03c.715-.356 1.71-.61 2.857-.61.357 0 .842.102 1.123.152V4.757a2.492 2.492 0 0 0-.766-.102 3.996 3.996 0 0 0-3.265 1.704h-.127V4.782h-4.184v13.1zM31.49 15.16c1.377 0 2.22-.814 2.22-3.536v-.458c0-3.103-.945-3.663-2.271-3.663-1.429 0-2.245.865-2.245 3.536v.483c0 3.027.944 3.638 2.296 3.638zm-.026 2.976c-4.387 0-6.708-2.391-6.708-6.588v-.306c0-4.477 2.882-6.69 6.708-6.69 4.363 0 6.71 2.29 6.71 6.563v.305c0 4.503-2.909 6.716-6.71 6.716zm8.087-.254h4.362v-9.54c.51-.203 1.326-.432 2.015-.432 1.2 0 1.658.356 1.658 1.425v8.547h4.337V8.14c0-2.595-1.429-3.587-3.878-3.587-1.658 0-3.035.484-4.183 1.374h-.128V4.782h-4.183v13.1zm19.285.203c1.403 0 2.372-.254 2.908-.509V14.78a6.63 6.63 0 0 1-1.301.127c-1.046 0-1.429-.28-1.429-1.195V7.809h2.653V4.808h-2.653V1.704h-4.362v3.104H53.02v3.001h1.632v6.538c0 2.874 1.556 3.74 4.184 3.74zm10.56-2.925c1.378 0 2.22-.814 2.22-3.536v-.458c0-3.103-.944-3.663-2.27-3.663-1.429 0-2.245.865-2.245 3.536v.483c0 3.027.944 3.638 2.296 3.638zm-.025 2.976c-4.387 0-6.709-2.391-6.709-6.588v-.306c0-4.477 2.883-6.69 6.71-6.69 4.361 0 6.708 2.29 6.708 6.563v.305c0 4.503-2.908 6.716-6.709 6.716zm8.138-14.83h4.413V0h-4.413v3.307zm.025 14.601h4.362V4.782h-4.362v13.126zm6.377-.025h4.362v-9.54c.51-.228 1.2-.432 1.837-.432 1.02 0 1.454.382 1.454 1.4v8.572h4.337V8.649c0-.077-.026-.178-.026-.305.638-.255 1.2-.433 1.837-.433 1.046 0 1.454.382 1.454 1.4v8.572h4.336V8.089c0-2.595-1.352-3.536-3.596-3.536-1.582 0-3.061.51-4.362 1.476h-.102c-.587-1.043-1.633-1.476-3.138-1.476-1.71 0-2.985.51-4.082 1.374h-.127V4.782H83.91v13.1zm27.627-2.697c1.556 0 2.474-.687 2.474-3.51v-.407c0-2.722-.842-3.383-2.321-3.383-.893 0-1.582.254-1.964.508v6.309c.382.254 1.071.483 1.81.483zm-6.148 6.538V4.808h4.184v1.094h.127c.867-.84 2.04-1.323 3.801-1.323 2.551 0 4.949 1.5 4.949 6.283v.305c0 5.164-2.475 6.97-6.071 6.97-1.327 0-2.169-.254-2.653-.458v4.045h-4.337zm14.566-18.417h4.413V0h-4.413v3.307zm.025 14.601h4.362V4.782h-4.362v13.126zm12.296-10.506c-.97 0-1.888.56-2.066 2.595h3.979c0-1.908-.638-2.595-1.913-2.595zm.484 10.735c-4.668 0-6.938-2.34-6.938-6.665v-.33c0-4.045 2.525-6.589 6.454-6.589 4.413 0 6.071 2.468 6.071 6.767v1.119h-8.112c.255 2.06 1.429 2.645 3.648 2.645 1.556 0 2.908-.381 3.928-.788v2.67c-.995.586-2.627 1.17-5.05 1.17zm12.423-7.708c1.02 0 1.582-.381 1.582-1.602v-.204c0-1.348-.587-1.653-1.582-1.653-1.045 0-1.607.407-1.607 1.628V8.8c0 1.247.562 1.628 1.607 1.628zm-.153 8.75c2.194 0 2.883-.533 2.883-1.296 0-.764-.332-.84-1.684-.84h-2.78c-.536.178-.893.407-.893 1.018 0 .712.51 1.119 2.474 1.119zm.026 2.52c-4.515 0-6.454-1.17-6.454-2.952 0-1.297 1.046-1.984 2.449-2.416v-.127c-.816-.331-1.454-.865-1.454-1.832 0-1.043.689-1.704 1.633-2.39-1.097-.662-1.735-1.654-1.735-3.104V8.75c0-2.773 2.194-4.198 5.688-4.198.868 0 1.684.077 2.398.23h4.413v2.441h-1.658c.28.407.434.814.434 1.425v.127c0 2.696-2.194 4.02-5.587 4.02-.714 0-1.326-.052-1.913-.179-.153.203-.255.254-.255.509 0 .458.28.61.995.61h3.75c2.78 0 4.413.992 4.413 3.485 0 2.747-2.245 4.477-7.117 4.477zm14.285-6.538c1.378 0 2.22-.814 2.22-3.536v-.458c0-3.103-.944-3.663-2.27-3.663-1.43 0-2.246.865-2.246 3.536v.483c0 3.027.944 3.638 2.296 3.638zm-.025 2.976c-4.388 0-6.71-2.391-6.71-6.588v-.306c0-4.477 2.883-6.69 6.71-6.69 4.362 0 6.708 2.29 6.708 6.563v.305c0 4.503-2.908 6.716-6.708 6.716zm7.83.432h4.184v-3.84h-4.183v3.84zm5.945-15.262h4.413V0h-4.413v3.307zm.025 14.601h4.362V4.782h-4.362v13.126zm11.428.178c1.403 0 2.373-.254 2.908-.509V14.78a6.63 6.63 0 0 1-1.3.127c-1.047 0-1.43-.28-1.43-1.195V7.809h2.654V4.808h-2.653V1.704h-4.362v3.104h-1.633v3.001h1.633v6.538c0 2.874 1.556 3.74 4.183 3.74zM0 36.38h.816v-6.216H0v6.216zm3.757 0h3.562v-.694H4.573v-5.522h-.816v6.216zm11.122 0h.807v-5.513h1.846v-.703h-4.5v.703h1.847v5.513zm7.3.111c1.503 0 2.254-.694 2.254-2.294v-4.033h-.751v3.996c0 1.314-.483 1.684-1.466 1.684-.992 0-1.54-.38-1.54-1.675v-4.005h-.816v4.052c0 1.544.835 2.275 2.32 2.275zm7.495-.009c-1.688 0-2.727-1.1-2.727-3.127v-.175c0-1.924 1.039-3.117 2.764-3.117 1.698 0 2.718 1.11 2.718 3.126v.176c0 1.924-1.02 3.117-2.755 3.117zm.028-.666c1.27 0 1.855-1.008 1.855-2.322v-.296c0-1.443-.491-2.46-1.883-2.46-1.261 0-1.846.99-1.846 2.303v.305c0 1.443.501 2.47 1.874 2.47zm11.493.666c.724 0 1.308-.148 1.744-.398v-.694c-.399.185-.872.398-1.623.398-1.401 0-1.967-.906-1.967-2.442v-.333c0-1.61.816-2.257 1.92-2.257.622 0 1.076.13 1.596.324v-.675c-.38-.213-.881-.343-1.53-.343-1.587 0-2.867.842-2.867 3.08v.213c0 2.11 1.067 3.127 2.727 3.127zm6.493.01c1.503 0 2.254-.694 2.254-2.295v-4.033h-.751v3.996c0 1.314-.482 1.684-1.466 1.684-.992 0-1.54-.38-1.54-1.675v-4.005h-.816v4.052c0 1.544.835 2.275 2.32 2.275zm5.13-.112v-6.216h1.827c1.373 0 2.087.601 2.087 1.767 0 .888-.445 1.369-1.178 1.628v.046l1.633 2.775h-.937l-1.503-2.627h-1.113v2.627h-.816zm.816-3.274h.965c.9 0 1.27-.361 1.27-1.157 0-.777-.389-1.082-1.28-1.082h-.955v2.239zm5.881 3.274v-6.216h1.828c1.373 0 2.087.601 2.087 1.767 0 .888-.445 1.369-1.178 1.628v.046l1.632 2.775h-.937l-1.502-2.627h-1.113v2.627h-.817zm.817-3.274h.964c.9 0 1.271-.361 1.271-1.157 0-.777-.39-1.082-1.28-1.082h-.955v2.239zm5.908 3.274h.817v-6.216h-.817v6.216zm6.123.102c.723 0 1.308-.148 1.744-.398v-.694c-.4.185-.872.398-1.624.398-1.4 0-1.966-.906-1.966-2.442v-.333c0-1.61.816-2.257 1.92-2.257.621 0 1.076.13 1.595.324v-.675c-.38-.213-.88-.343-1.53-.343-1.586 0-2.867.842-2.867 3.08v.213c0 2.11 1.067 3.127 2.728 3.127zm6.493.01c1.503 0 2.254-.694 2.254-2.295v-4.033h-.751v3.996c0 1.314-.483 1.684-1.466 1.684-.993 0-1.54-.38-1.54-1.675v-4.005h-.816v4.052c0 1.544.835 2.275 2.319 2.275zm5.13-.112h3.562v-.694h-2.746v-5.522h-.816v6.216zm8.255.111c1.503 0 2.254-.694 2.254-2.294v-4.033h-.751v3.996c0 1.314-.482 1.684-1.466 1.684-.992 0-1.54-.38-1.54-1.675v-4.005h-.816v4.052c0 1.544.835 2.275 2.32 2.275zm5.13-.11h.751v-5.134h.019l1.725 5.133h.76l1.726-5.134h.028v5.134h.826v-6.216h-1.197l-1.698 5.143h-.027l-1.716-5.143H97.37v6.216zm12.569 0h.751v-5.088h.019l2.978 5.087h.844v-6.216h-.752v4.829h-.018l-2.857-4.829h-.965v6.216zm7.504 0h3.739v-.694h-2.922v-2.174h2.235v-.685h-2.235v-1.96h2.894v-.704h-3.71v6.216zm6.42 0h3.561v-.694h-2.745v-5.523h-.817v6.216zm5.982 0h3.562v-.694h-2.745v-5.523h-.817v6.216zm5.984 0h3.738v-.694h-2.922v-2.174h2.235v-.685h-2.235v-1.96h2.894v-.704h-3.71v6.216zm9.61 0l2.272-6.217h.789l2.254 6.216h-.854l-.63-1.748h-2.43l-.622 1.748h-.78zm2.588-5.125l-.947 2.682h1.94l-.966-2.682h-.027zm4.545 5.124h4.22v-.694h-3.246v-.018l3.358-4.893v-.61h-4.091v.702h3.108v.019l-3.35 4.875v.62zm6.8 0h.816v-6.216h-.817v6.216zm3.756 0h3.738v-.694h-2.922v-2.173h2.236v-.685h-2.236v-1.96h2.894v-.704h-3.71v6.216zm6.42 0h.75v-5.087h.019l2.978 5.087h.844v-6.216h-.752v4.829h-.018l-2.857-4.829h-.965v6.216zm7.503 0v-6.216h1.883c1.884 0 2.922.962 2.922 2.932v.186c0 1.933-.9 3.098-2.903 3.098h-1.902zm.817-.703h1.104c1.382 0 2.003-.684 2.003-2.275v-.306c0-1.683-.77-2.22-2.124-2.22h-.983v4.801zm6.549.703h3.738v-.694h-2.922v-2.173h2.235v-.685h-2.235v-1.96h2.894v-.704h-3.71v6.216z"/></g></svg>