<svg width="74" height="96" viewBox="0 0 74 96" xmlns="http://www.w3.org/2000/svg" xmlns:xlink="http://www.w3.org/1999/xlink"><title>placeholder</title><defs><path id="a" d="M.012 95.988H74V0H.012z"/></defs><g fill="none" fill-rule="evenodd"><g><mask id="b" fill="#fff"><use xlink:href="#a"/></mask><path d="M37 92.254C31.178 86.99 3.217 60.546 3.217 38.4 3.217 16.358 15.847 3.2 37 3.2s33.783 13.158 33.783 35.2c0 22.146-27.961 48.59-33.783 53.854zM37 0C13.832 0 0 14.355 0 38.4c0 26.06 34.48 55.952 35.95 57.211.3.26.675.389 1.05.389s.75-.13 1.05-.389C39.52 94.352 74 64.46 74 38.4 74 14.355 60.168 0 37 0z" fill="#153256" mask="url(#b)"/></g><path d="M37 59.2c-13.306 0-24.13-10.766-24.13-24s10.824-24 24.13-24 24.13 10.766 24.13 24-10.824 24-24.13 24zM37 8C21.92 8 9.652 20.202 9.652 35.2S21.92 62.4 37 62.4c15.08 0 27.348-12.202 27.348-27.2S52.08 8 37 8z" fill="#153256"/><path d="M24.13 43.2v-8.042c1.349 1.016 3.009 1.642 4.827 1.642h6.434v1.6h3.218v-1.6h6.434c1.818 0 3.478-.626 4.827-1.642V43.2H24.13zm0-16h25.74v1.6c0 2.646-2.166 4.8-4.827 4.8H28.957c-2.661 0-4.827-2.154-4.827-4.8v-1.6zm9.653-3.2h6.434v-3.2h-6.434V24zm17.695 0h-8.043v-3.2c0-1.765-1.443-3.2-3.218-3.2h-6.434c-1.775 0-3.218 1.435-3.218 3.2V24h-8.043c-.888 0-1.609.717-1.609 1.6v19.2c0 .883.72 1.6 1.609 1.6h28.956c.888 0 1.609-.717 1.609-1.6V25.6c0-.883-.72-1.6-1.609-1.6zM28.957 52.8h3.217v-3.2h-3.217zM35.391 52.8h3.218v-3.2H35.39zM41.826 52.8h3.217v-3.2h-3.217zM56.304 91.2h3.218V88h-3.218zM62.74 91.2h3.217V88h-3.218zM69.174 91.2h3.217V88h-3.217zM1.609 91.2h3.217V88H1.61zM8.043 91.2h3.218V88H8.043zM14.478 91.2h3.218V88h-3.218z" fill="#153256"/></g></svg>