<svg width="100" height="93" viewBox="0 0 100 93" xmlns="http://www.w3.org/2000/svg" xmlns:xlink="http://www.w3.org/1999/xlink"><title>responsive</title><defs><path id="a" d="M0 93h100V.008H0z"/></defs><g fill="none" fill-rule="evenodd"><g><mask id="b" fill="#fff"><use xlink:href="#a"/></mask><path d="M95 89.679H76.667A1.666 1.666 0 0 1 75 88.018v-3.322h21.667v3.322c0 .915-.749 1.66-1.667 1.66zm-48.333-23.25h25v-9.965h-25v9.965zM61 78.054H46.667V69.75h12.06L61 78.054zm.96 5.99c-.318.415-.8.652-1.325.652H46.667v-3.321h15.241l.335 1.224a1.64 1.64 0 0 1-.283 1.445zm-20.293 5.635H5a1.666 1.666 0 0 1-1.667-1.661v-3.322h40v3.322c0 .915-.748 1.66-1.666 1.66zM5 36.536h36.667c.918 0 1.666.745 1.666 1.66v3.322h-40v-3.322c0-.915.749-1.66 1.667-1.66zM3.333 81.375h40V44.839h-40v36.536zm5-73.071c0-2.747 2.244-4.983 5-4.983h73.334c2.756 0 5 2.236 5 4.983v36.535h-15c-2.757 0-5 2.236-5 4.982v3.322h-25V38.196c0-2.746-2.244-4.982-5-4.982H8.333V8.304zM75 81.375h21.667v-24.91H75v24.91zm21.667-31.554v3.322H75V49.82c0-.915.748-1.66 1.667-1.66H95c.918 0 1.667.745 1.667 1.66zM95 44.84V8.304C95 3.725 91.262 0 86.667 0H13.333C8.738 0 5 3.725 5 8.304v24.91c-2.757 0-5 2.236-5 4.982v49.822C0 90.765 2.243 93 5 93h36.667c2.756 0 5-2.235 5-4.982h13.968c1.572 0 3.02-.714 3.973-1.958a4.932 4.932 0 0 0 .85-4.335L62.182 69.75h9.485v18.268c0 2.747 2.243 4.982 5 4.982H95c2.757 0 5-2.235 5-4.982V49.82c0-2.746-2.243-4.982-5-4.982z" fill="#153256" mask="url(#b)"/></g><path fill="#153256" d="M8.821 68.574l6.667-6.642 2.357 2.348-6.667 6.643-2.357-2.349M15.488 73.557l20-19.929 2.357 2.349-20 19.928-2.357-2.348M18.82 58.612l10-9.964 2.357 2.349-10 9.964-2.357-2.349M78.819 68.577l8.332-8.303 2.357 2.349-8.332 8.302-2.357-2.348M82.152 75.227l8.332-8.303 2.357 2.349-8.332 8.302-2.357-2.348M43.82 28.719l10-9.964 2.356 2.349-10 9.963-2.356-2.348M58.821 25.397l10-9.964 2.357 2.349-10 9.964-2.357-2.349M48.82 35.364l6.666-6.643 2.358 2.348-6.667 6.643-2.357-2.348M57.144 15.454l6.683-6.66 2.357 2.35-6.684 6.659-2.356-2.349M11.667 9.964H15V6.643h-3.333zM18.333 9.964h3.334V6.643h-3.334zM25 9.964h3.333V6.643H25z"/></g></svg>