<?xml version="1.0" encoding="UTF-8" standalone="no"?>
<svg width="108px" height="102px" viewBox="0 0 108 102" version="1.1" xmlns="http://www.w3.org/2000/svg" xmlns:xlink="http://www.w3.org/1999/xlink">
    <!-- Generator: Sketch 42 (36781) - http://www.bohemiancoding.com/sketch -->
    <title>handshake</title>
    <desc>Created with Sketch.</desc>
    <defs></defs>
    <g id="Home-generica" stroke="none" stroke-width="1" fill="none" fill-rule="evenodd">
        <g id="Home_generale" transform="translate(-1121.000000, -982.000000)" fill="#153256">
            <g id="handshake" transform="translate(1121.000000, 982.000000)">
                <path d="M13.4798049,29.8965517 C14.4474146,29.8965517 15.2359024,30.6861724 15.2359024,31.6551724 C15.2359024,32.6241724 14.4474146,33.4137931 13.4798049,33.4137931 C12.5121951,33.4137931 11.7237073,32.6241724 11.7237073,31.6551724 C11.7237073,30.6861724 12.5121951,29.8965517 13.4798049,29.8965517 Z M13.4798049,36.9310345 C16.3843902,36.9310345 18.7480976,34.563931 18.7480976,31.6551724 C18.7480976,28.7464138 16.3843902,26.3793103 13.4798049,26.3793103 C10.5752195,26.3793103 8.2115122,28.7464138 8.2115122,31.6551724 C8.2115122,34.563931 10.5752195,36.9310345 13.4798049,36.9310345 L13.4798049,36.9310345 Z" id="Fill-1"></path>
                <path d="M77.4263415,71.5002414 L58.536,90.4177241 C57.2593171,91.6962414 55.0817561,91.7314138 53.7365854,90.5531379 L61.0472195,83.232 C62.0798049,82.1961724 62.6505366,80.8174138 62.6505366,79.3507241 C62.6505366,76.3892069 60.2938537,73.9851724 57.3629268,73.8814138 C57.2610732,71.0113448 54.9605854,68.7075517 52.0946341,68.6055517 C51.9927805,65.7354828 49.6922927,63.4316897 46.8263415,63.3296897 C46.7227317,60.3945517 44.3203902,58.0344828 41.364878,58.0344828 C39.9002927,58.0344828 38.5235122,58.6060345 37.4891707,59.6418621 L31.0407805,66.0995172 L24.0163902,59.0650345 L24.0163902,55.2453103 L46.8456585,32.3832414 L49.1162927,34.6571379 C49.4446829,34.9877586 49.8924878,35.1724138 50.3578537,35.1724138 L56.6552195,35.1724138 L58.4060488,36.9257586 L45.4987317,49.7513793 C45.1668293,50.082 44.9789268,50.5339655 44.9806829,51.0035172 C44.982439,51.473069 45.1703415,51.9232759 45.504,52.2521379 C50.1207805,56.8069655 57.6087805,56.7788276 62.190439,52.187069 L62.6505366,51.728069 L77.4263415,66.5251034 C78.0901463,67.1898621 78.4554146,68.0726897 78.4554146,69.0135517 C78.4554146,69.9544138 78.0901463,70.8354828 77.4263415,71.5002414 Z M46.8456585,87.7182414 C46.8456585,87.1906552 47.051122,86.6964828 47.4216585,86.3236552 L55.7771707,77.9561379 C56.1494634,77.585069 56.6429268,77.3793103 57.1697561,77.3793103 C58.2550244,77.3793103 59.1383415,78.2638966 59.1383415,79.3507241 C59.1383415,79.8783103 58.932878,80.3724828 58.5623415,80.7453103 L50.2068293,89.1128276 C49.8345366,89.4838966 49.3410732,89.6896552 48.8142439,89.6896552 C47.7289756,89.6896552 46.8456585,88.805069 46.8456585,87.7182414 Z M41.5773659,82.4423793 C41.5773659,81.9147931 41.7828293,81.4206207 42.1533659,81.0477931 L50.508878,72.6802759 C50.8811707,72.3092069 51.3746341,72.1034483 51.9014634,72.1034483 C52.9867317,72.1034483 53.8700488,72.9880345 53.8700488,74.0748621 C53.8700488,74.6024483 53.6645854,75.0966207 53.2940488,75.4694483 L44.9385366,83.8369655 C44.5662439,84.2080345 44.0727805,84.4137931 43.5459512,84.4137931 C42.4606829,84.4137931 41.5773659,83.5292069 41.5773659,82.4423793 Z M36.3090732,77.1665172 C36.3090732,76.638931 36.5145366,76.1447586 36.8850732,75.771931 L45.2405854,67.4044138 C45.612878,67.0333448 46.1063415,66.8275862 46.6331707,66.8275862 C47.718439,66.8275862 48.6017561,67.7121724 48.6017561,68.799 C48.6017561,69.3265862 48.3962927,69.8207586 48.0257561,70.1935862 L39.6702439,78.5611034 C39.2979512,78.9321724 38.8044878,79.137931 38.2776585,79.137931 C37.1923902,79.137931 36.3090732,78.2533448 36.3090732,77.1665172 Z M31.0407805,71.8906552 C31.0407805,71.363069 31.2462439,70.8688966 31.6167805,70.496069 L39.9722927,62.1285517 C40.3445854,61.7574828 40.8380488,61.5517241 41.364878,61.5517241 C42.4501463,61.5517241 43.3334634,62.4363103 43.3334634,63.5231379 C43.3334634,64.0507241 43.128,64.5448966 42.7574634,64.9177241 L34.4019512,73.2852414 C34.0296585,73.6563103 33.5361951,73.862069 33.0093659,73.862069 C31.9240976,73.862069 31.0407805,72.9774828 31.0407805,71.8906552 Z M39.8212683,25.3487586 L44.3625366,29.8965517 L22.2076098,52.0833103 L17.4696585,47.7342414 L39.8212683,25.3487586 Z M107.794537,41.6916207 L105.311415,39.204931 L80.1816585,64.3707931 C80.0868293,64.2635172 80.0113171,64.1421724 79.9094634,64.0384138 L65.1336585,49.2413793 L67.4042927,46.9674828 L64.9211707,44.4807931 L59.7073171,49.7021379 C56.9133659,52.4983448 52.5880976,52.8852414 49.3691707,50.861069 L62.1307317,38.1814138 C62.1324878,38.1796552 62.1324878,38.1778966 62.1342439,38.1761379 L95.5000976,4.76234483 L93.0169756,2.27565517 L60.894439,34.4443448 L58.6238049,32.1704483 C58.2954146,31.8398276 57.8476098,31.6551724 57.3822439,31.6551724 L51.084878,31.6551724 L23.5018537,4.03251724 L21.0187317,6.5192069 L37.3381463,22.862069 L14.8776585,45.3548276 L2.3742439,33.8763103 L0,36.4702759 L20.5041951,55.2910345 L20.5041951,59.7931034 C20.5041951,60.2591379 20.6885854,60.7075862 21.0187317,61.0364483 L28.6138537,68.6424828 C27.9201951,69.5798276 27.5285854,70.7018276 27.5285854,71.8906552 C27.5285854,74.8521724 29.8852683,77.2562069 32.8161951,77.3599655 C32.9180488,80.2300345 35.2185366,82.5338276 38.0844878,82.6358276 C38.1863415,85.5058966 40.4868293,87.8096897 43.3527805,87.9116897 C43.4563902,90.8468276 45.8587317,93.2068966 48.8142439,93.2068966 C49.5605854,93.2068966 50.2840976,93.0538966 50.9514146,92.7707586 L51.084878,92.9044138 C52.4107317,94.233931 54.1756098,94.9655172 56.052878,94.9655172 C57.9301463,94.9655172 59.6932683,94.233931 61.019122,92.9044138 L79.9094634,73.986931 C81.2370732,72.6574138 81.9676098,70.8917586 81.9676098,69.0135517 C81.9676098,68.5633448 81.9201951,68.1201724 81.8376585,67.6857931 L107.794537,41.6916207 L107.794537,41.6916207 Z" id="Fill-2"></path>
                <path d="M12.2452683,73.7547931 L9.16331707,75.443069 C9.74107317,76.5 10.3662439,77.5534138 11.0212683,78.5716552 L13.9750244,76.6688276 C13.3639024,75.7191724 12.7826341,74.7396207 12.2452683,73.7547931" id="Fill-3"></path>
                <path d="M36.072,98.7975517 C37.1976585,99.2196207 38.358439,99.6065172 39.5244878,99.9476897 L40.5114146,96.5728966 C39.4279024,96.2545862 38.3496585,95.8958276 37.3030244,95.5036552 L36.072,98.7975517" id="Fill-4"></path>
                <path d="M23.3438049,91.8263793 C24.3096585,92.5526897 25.3159024,93.2526207 26.3309268,93.9068276 L28.2310244,90.9488276 C27.2862439,90.3385862 26.3502439,89.6878966 25.452878,89.0125862 L23.3438049,91.8263793" id="Fill-5"></path>
                <path d="M29.4585366,95.7692069 C30.5157073,96.3477931 31.6097561,96.8982414 32.7108293,97.4029655 L34.1736585,94.2057931 C33.1480976,93.7344828 32.129561,93.2227241 31.1443902,92.6845862 L29.4585366,95.7692069" id="Fill-6"></path>
                <path d="M17.8524878,87.0552414 C18.7059512,87.9116897 19.601561,88.7470345 20.5129756,89.5384138 L22.8152195,86.8811379 C21.9652683,86.1442759 21.132878,85.3652069 20.3373659,84.5703103 L17.8524878,87.0552414" id="Fill-7"></path>
                <path d="M15.9032195,79.4492069 L13.0934634,81.5595517 C13.8204878,82.5303103 14.5879024,83.4834828 15.3746341,84.3926897 L18.0280976,82.0871379 C17.297561,81.2412414 16.5828293,80.3531379 15.9032195,79.4492069" id="Fill-8"></path>
                <path d="M6.57482927,54.3958966 L3.07141463,54.6456207 C3.15570732,55.8502759 3.28565854,57.0672414 3.456,58.2648621 L6.93307317,57.768931 C6.77502439,56.6522069 6.65385366,55.5178966 6.57482927,54.3958966" id="Fill-9"></path>
                <path d="M6.57482927,47.6164138 L3.07141463,47.3666897 C2.98536585,48.5625517 2.94321951,49.7847931 2.94321951,51 L2.94321951,51.0052759 L6.45541463,51 C6.45541463,49.8674483 6.49580488,48.7278621 6.57482927,47.6164138" id="Fill-10"></path>
                <path d="M7.53014634,61.1015172 L4.09873171,61.848931 C4.35512195,63.0324828 4.65717073,64.2195517 4.99609756,65.3767241 L8.36604878,64.3883793 C8.05170732,63.3103448 7.77073171,62.2041724 7.53014634,61.1015172" id="Fill-11"></path>
                <path d="M9.4337561,67.6013793 L6.14282927,68.8324138 C6.56429268,69.9614483 7.03141463,71.0922414 7.53365854,72.1913793 L10.728,70.7299655 C10.260878,69.7046897 9.82536585,68.6530345 9.4337561,67.6013793" id="Fill-12"></path>
                <path d="M95.4913171,73.7618276 L98.5732683,75.4501034 C99.1510244,74.3914138 99.7006829,73.2957931 100.204683,72.1931379 L97.0120976,70.7282069 C96.5414634,71.7552414 96.030439,72.7752414 95.4913171,73.7618276" id="Fill-13"></path>
                <path d="M91.8263415,79.4615172 L94.6360976,81.5736207 C95.3596098,80.6098966 96.0585366,79.6022069 96.7153171,78.5822069 L93.761561,76.6776207 C93.150439,77.6272759 92.4989268,78.5628621 91.8263415,79.4615172" id="Fill-14"></path>
                <path d="M87.390439,84.5808621 L89.8718049,87.0693103 C90.7270244,86.2146207 91.5611707,85.3177241 92.3514146,84.405 L89.6979512,82.0994483 C88.9621463,82.9506207 88.1859512,83.7859655 87.390439,84.5808621" id="Fill-15"></path>
                <path d="M98.3098537,67.5943448 L101.599024,68.8253793 C102.022244,67.6945862 102.406829,66.5303793 102.747512,65.367931 L99.377561,64.3795862 C99.0597073,65.4611379 98.7014634,66.5426897 98.3098537,67.5943448" id="Fill-16"></path>
                <path d="M100.209951,61.0962414 L103.643122,61.8401379 C103.897756,60.6636207 104.113756,59.4589655 104.284098,58.256069 L100.80878,57.7601379 C100.648976,58.8786207 100.447024,60.0006207 100.209951,61.0962414" id="Fill-17"></path>
                <path d="M82.2749268,89.0231379 L84.3822439,91.836931 C85.3498537,91.1106207 86.3016585,90.3421034 87.2113171,89.5524828 L84.9108293,86.8934483 C84.0643902,87.6285517 83.177561,88.3443103 82.2749268,89.0231379" id="Fill-18"></path>
                <path d="M43.0489756,100.846345 C44.2238049,101.101345 45.4267317,101.317655 46.6279024,101.488241 L47.123122,98.007931 C46.0062439,97.8478966 44.8858537,97.6456552 43.7918049,97.41 L43.0489756,100.846345" id="Fill-19"></path>
                <path d="M101.167024,54.3888621 L104.670439,54.6368276 C104.754732,53.4356897 104.796878,52.2116897 104.796878,51 L101.284683,51 C101.284683,52.1307931 101.246049,53.2721379 101.167024,54.3888621" id="Fill-20"></path>
                <path d="M57.257561,98.3631724 L57.5069268,101.871621 C58.7098537,101.787207 59.9250732,101.657069 61.1209756,101.486483 L60.6257561,98.0044138 C59.5123902,98.1626897 58.3797073,98.2840345 57.257561,98.3631724" id="Fill-21"></path>
                <path d="M50.489561,98.364931 L50.2419512,101.873379 C51.4396098,101.957793 52.6618537,102 53.8718049,102 L53.8700488,98.4827586 C52.740878,98.4827586 51.6046829,98.444069 50.489561,98.364931" id="Fill-22"></path>
                <path d="M76.590439,92.6863448 L78.2762927,95.7727241 C79.3369756,95.1906207 80.387122,94.5663103 81.3986341,93.9138621 L79.4985366,90.9558621 C78.5572683,91.5625862 77.579122,92.1446897 76.590439,92.6863448" id="Fill-23"></path>
                <path d="M70.4458537,95.5001379 L71.6733659,98.7957931 C72.8007805,98.3737241 73.9299512,97.905931 75.0275122,97.4029655 L73.5681951,94.2040345 C72.5443902,94.6718276 71.4942439,95.1097241 70.4458537,95.5001379" id="Fill-24"></path>
                <path d="M63.953561,97.4082414 L64.6999024,100.844586 C65.8817561,100.587828 67.067122,100.285345 68.2226341,99.945931 L67.2357073,96.5711379 C66.1592195,96.885931 65.0563902,97.1673103 63.953561,97.4082414" id="Fill-25"></path>
                <path d="M77.5580488,6.18331034 C76.481561,5.55548276 75.4033171,4.97513793 74.3549268,4.45986207 L72.8078049,7.61834483 C73.782439,8.09668966 74.7851707,8.63658621 75.7879024,9.2222069 L77.5580488,6.18331034" id="Fill-26"></path>
                <path d="M53.8700488,3.51724138 C54.7972683,3.51724138 55.7034146,3.53834483 56.5884878,3.58055172 L56.753561,0.0668275862 C55.8140488,0.022862069 54.8552195,0 53.8700488,0 L53.136,0.00527586207 L53.1869268,3.52251724 L53.8700488,3.51724138" id="Fill-27"></path>
                <path d="M71.0078049,2.98437931 C69.8680976,2.53768966 68.7020488,2.14024138 67.5395122,1.79906897 L66.5543415,5.17562069 C67.6167805,5.48689655 68.6844878,5.85093103 69.7276098,6.25893103 L71.0078049,2.98437931" id="Fill-28"></path>
                <path d="M63.9799024,0.926793103 C62.8156098,0.694655172 61.6021463,0.504724138 60.372878,0.360517241 L59.9654634,3.85313793 C61.0999024,3.9867931 62.2202927,4.16265517 63.2950244,4.3772069 L63.9799024,0.926793103" id="Fill-29"></path>
                <path d="M36.6585366,6.7407931 L35.3800976,3.46448276 C34.254439,3.90413793 33.1322927,4.38951724 32.0435122,4.90831034 L33.5484878,8.08613793 C34.5635122,7.60427586 35.6101463,7.15055172 36.6585366,6.7407931" id="Fill-30"></path>
                <path d="M43.1192195,4.743 L42.3254634,1.3172069 C41.147122,1.59155172 39.9652683,1.90986207 38.8150244,2.26686207 L39.852878,5.62758621 C40.9223415,5.2952069 42.0216585,4.998 43.1192195,4.743" id="Fill-31"></path>
                <path d="M49.8029268,3.68958621 L49.5061463,0.184655172 C48.2997073,0.288413793 47.0844878,0.43437931 45.8956098,0.622551724 L46.4435122,4.09758621 C47.5480976,3.92172414 48.6790244,3.78455172 49.8029268,3.68958621" id="Fill-32"></path>
            </g>
        </g>
    </g>
</svg>