<?xml version="1.0" encoding="UTF-8" standalone="no"?>
<svg width="73px" height="95px" viewBox="0 0 73 95" version="1.1" xmlns="http://www.w3.org/2000/svg" xmlns:xlink="http://www.w3.org/1999/xlink">
    <!-- Generator: Sketch 42 (36781) - http://www.bohemiancoding.com/sketch -->
    <title>list</title>
    <desc>Created with Sketch.</desc>
    <defs>
        <polygon id="path-1" points="0.0119021739 94.988125 73 94.988125 73 0 0.0119021739 0"></polygon>
    </defs>
    <g id="Home-generica" stroke="none" stroke-width="1" fill="none" fill-rule="evenodd">
        <g id="Home_generale" transform="translate(-534.000000, -986.000000)">
            <g id="list" transform="translate(534.000000, 986.000000)">
                <g id="Group-3">
                    <mask id="mask-2" fill="white">
                        <use xlink:href="#path-1"></use>
                    </mask>
                    <g id="Clip-2"></g>
                    <path d="M69.826087,87.0833333 C69.826087,89.7021667 67.6900435,91.8333333 65.0652174,91.8333333 L7.93478261,91.8333333 C5.30995652,91.8333333 3.17391304,89.7021667 3.17391304,87.0833333 L3.17391304,7.91666667 C3.17391304,5.29783333 5.30995652,3.16666667 7.93478261,3.16666667 L55.5434783,3.16666667 L55.5434783,15.8333333 C55.5434783,16.7089167 56.2544348,17.4166667 57.1304348,17.4166667 L69.826087,17.4166667 L69.826087,87.0833333 Z M58.7173913,5.4055 L67.5821304,14.25 L58.7173913,14.25 L58.7173913,5.4055 Z M72.5334348,14.7123333 L58.254,0.4655 C57.9667609,0.177333333 57.5700217,0 57.1304348,0 L7.93478261,0 C3.55954348,0 0,3.55141667 0,7.91666667 L0,87.0833333 C0,91.4485833 3.55954348,95 7.93478261,95 L65.0652174,95 C69.4404565,95 73,91.4485833 73,87.0833333 L73,15.8333333 C73,15.39475 72.8222609,14.9989167 72.5334348,14.7123333 L72.5334348,14.7123333 Z" id="Fill-1" fill="#153256" mask="url(#mask-2)"></path>
                </g>
                <path d="M14.2826087,31.6666667 C12.5321957,31.6666667 11.1086957,30.2464167 11.1086957,28.5 C11.1086957,26.7535833 12.5321957,25.3333333 14.2826087,25.3333333 C16.0330217,25.3333333 17.4565217,26.7535833 17.4565217,28.5 C17.4565217,30.2464167 16.0330217,31.6666667 14.2826087,31.6666667 Z M14.2826087,22.1666667 C10.7817826,22.1666667 7.93478261,25.0071667 7.93478261,28.5 C7.93478261,31.9928333 10.7817826,34.8333333 14.2826087,34.8333333 C17.7834348,34.8333333 20.6304348,31.9928333 20.6304348,28.5 C20.6304348,25.0071667 17.7834348,22.1666667 14.2826087,22.1666667 L14.2826087,22.1666667 Z" id="Fill-4" fill="#153256"></path>
                <path d="M14.2826087,49.0833333 C12.5321957,49.0833333 11.1086957,47.6630833 11.1086957,45.9166667 C11.1086957,44.17025 12.5321957,42.75 14.2826087,42.75 C16.0330217,42.75 17.4565217,44.17025 17.4565217,45.9166667 C17.4565217,47.6630833 16.0330217,49.0833333 14.2826087,49.0833333 Z M14.2826087,39.5833333 C10.7817826,39.5833333 7.93478261,42.4238333 7.93478261,45.9166667 C7.93478261,49.4095 10.7817826,52.25 14.2826087,52.25 C17.7834348,52.25 20.6304348,49.4095 20.6304348,45.9166667 C20.6304348,42.4238333 17.7834348,39.5833333 14.2826087,39.5833333 L14.2826087,39.5833333 Z" id="Fill-5" fill="#153256"></path>
                <path d="M14.2826087,66.5 C12.5321957,66.5 11.1086957,65.07975 11.1086957,63.3333333 C11.1086957,61.5869167 12.5321957,60.1666667 14.2826087,60.1666667 C16.0330217,60.1666667 17.4565217,61.5869167 17.4565217,63.3333333 C17.4565217,65.07975 16.0330217,66.5 14.2826087,66.5 Z M14.2826087,57 C10.7817826,57 7.93478261,59.8405 7.93478261,63.3333333 C7.93478261,66.8261667 10.7817826,69.6666667 14.2826087,69.6666667 C17.7834348,69.6666667 20.6304348,66.8261667 20.6304348,63.3333333 C20.6304348,59.8405 17.7834348,57 14.2826087,57 L14.2826087,57 Z" id="Fill-6" fill="#153256"></path>
                <path d="M14.2826087,83.9166667 C12.5321957,83.9166667 11.1086957,82.4964167 11.1086957,80.75 C11.1086957,79.0035833 12.5321957,77.5833333 14.2826087,77.5833333 C16.0330217,77.5833333 17.4565217,79.0035833 17.4565217,80.75 C17.4565217,82.4964167 16.0330217,83.9166667 14.2826087,83.9166667 Z M14.2826087,74.4166667 C10.7817826,74.4166667 7.93478261,77.2571667 7.93478261,80.75 C7.93478261,84.2428333 10.7817826,87.0833333 14.2826087,87.0833333 C17.7834348,87.0833333 20.6304348,84.2428333 20.6304348,80.75 C20.6304348,77.2571667 17.7834348,74.4166667 14.2826087,74.4166667 L14.2826087,74.4166667 Z" id="Fill-7" fill="#153256"></path>
                <polygon id="Fill-8" fill="#153256" points="23.8043478 33.25 65.0652174 33.25 65.0652174 30.0833333 23.8043478 30.0833333"></polygon>
                <polygon id="Fill-9" fill="#153256" points="25.3913043 11.0833333 47.6086957 11.0833333 47.6086957 7.91666667 25.3913043 7.91666667"></polygon>
                <polygon id="Fill-10" fill="#153256" points="20.6304348 17.4166667 52.3695652 17.4166667 52.3695652 14.25 20.6304348 14.25"></polygon>
                <polygon id="Fill-11" fill="#153256" points="23.8043478 50.6666667 65.0652174 50.6666667 65.0652174 47.5 23.8043478 47.5"></polygon>
                <polygon id="Fill-12" fill="#153256" points="23.8043478 68.0833333 65.0652174 68.0833333 65.0652174 64.9166667 23.8043478 64.9166667"></polygon>
                <polygon id="Fill-13" fill="#153256" points="23.8043478 85.5 65.0652174 85.5 65.0652174 82.3333333 23.8043478 82.3333333"></polygon>
                <polygon id="Fill-14" fill="#153256" points="36.5 26.9166667 39.673913 26.9166667 39.673913 23.75 36.5 23.75"></polygon>
                <polygon id="Fill-15" fill="#153256" points="30.1521739 26.9166667 33.326087 26.9166667 33.326087 23.75 30.1521739 23.75"></polygon>
                <polygon id="Fill-16" fill="#153256" points="23.8043478 26.9166667 26.9782609 26.9166667 26.9782609 23.75 23.8043478 23.75"></polygon>
            </g>
        </g>
    </g>
</svg>