<?xml version="1.0" encoding="UTF-8" standalone="no"?>
<svg width="189px" height="37px" viewBox="0 0 189 37" version="1.1" xmlns="http://www.w3.org/2000/svg" xmlns:xlink="http://www.w3.org/1999/xlink">
    <!-- Generator: Sketch 42 (36781) - http://www.bohemiancoding.com/sketch -->
    <title>Group 9</title>
    <desc>Created with Sketch.</desc>
    <defs></defs>
    <g id="Home-generica" stroke="none" stroke-width="1" fill="none" fill-rule="evenodd">
        <g id="Home_generale" transform="translate(-117.000000, -50.000000)" fill="#FFFFFF">
            <g id="Group-9" transform="translate(117.000000, 50.000000)">
                <path d="M7.30722699,15.1861875 C8.86328834,15.1861875 9.78161963,14.499375 9.78161963,11.6758125 L9.78161963,11.2688125 C9.78161963,8.547 8.93981595,7.885625 7.46028221,7.885625 C6.56746012,7.885625 5.87871166,8.14 5.49607362,8.394375 L5.49607362,14.702875 C5.87871166,14.95725 6.56746012,15.1861875 7.30722699,15.1861875 Z M1.1595092,21.723625 L1.1595092,4.8076875 L5.3430184,4.8076875 L5.3430184,5.9015 L5.47056442,5.9015 C6.3378773,5.0620625 7.51130061,4.57875 9.27143558,4.57875 C11.8223558,4.57875 14.2202209,6.0795625 14.2202209,10.8618125 L14.2202209,11.1670625 C14.2202209,16.330875 11.7458282,18.1369375 8.14903067,18.1369375 C6.82255215,18.1369375 5.98074847,17.8825625 5.49607362,17.6790625 L5.49607362,21.723625 L1.1595092,21.723625 Z M15.6742454,17.8825625 L20.0363191,17.8825625 L20.0363191,9.0303125 C20.7505767,8.6741875 21.7454356,8.4198125 22.8933497,8.4198125 C23.2504786,8.4198125 23.7351534,8.5215625 24.0157546,8.5724375 L24.0157546,4.7568125 C23.8626994,4.7059375 23.6076074,4.6550625 23.2504786,4.6550625 C21.8729816,4.6550625 20.6740491,5.3673125 19.9853007,6.359375 L19.8577546,6.359375 L19.8577546,4.78225 L15.6742454,4.78225 L15.6742454,17.8825625 Z M31.489951,15.16075 C32.8674479,15.16075 33.7092516,14.34675 33.7092516,11.6249375 L33.7092516,11.1670625 C33.7092516,8.0636875 32.7654111,7.5040625 31.4389326,7.5040625 C30.0104173,7.5040625 29.1941228,8.3689375 29.1941228,11.039875 L29.1941228,11.5231875 C29.1941228,14.55025 30.1379633,15.16075 31.489951,15.16075 Z M31.4644418,18.1369375 C27.076859,18.1369375 24.7555215,15.7458125 24.7555215,11.548625 L24.7555215,11.243375 C24.7555215,6.766375 27.6380614,4.5533125 31.4644418,4.5533125 C35.8265154,4.5533125 38.173362,6.8426875 38.173362,11.1161875 L38.173362,11.4214375 C38.173362,15.923875 35.265313,18.1369375 31.4644418,18.1369375 Z M39.550859,17.8825625 L43.9129326,17.8825625 L43.9129326,8.3435 C44.4231167,8.14 45.2394112,7.9110625 45.9281596,7.9110625 C47.1270921,7.9110625 47.5862578,8.2671875 47.5862578,9.3355625 L47.5862578,17.8825625 L51.9228222,17.8825625 L51.9228222,8.14 C51.9228222,5.545375 50.4943069,4.5533125 48.0454234,4.5533125 C46.3873253,4.5533125 45.0098283,5.036625 43.8619142,5.9269375 L43.7343682,5.9269375 L43.7343682,4.78225 L39.550859,4.78225 L39.550859,17.8825625 Z M58.8358161,18.0860625 C60.2388222,18.0860625 61.2081719,17.8316875 61.7438652,17.5773125 L61.7438652,14.7791875 C61.3867364,14.8555 60.9020615,14.906375 60.4428959,14.906375 C59.3970186,14.906375 59.0143805,14.6265625 59.0143805,13.7108125 L59.0143805,7.8093125 L61.6673376,7.8093125 L61.6673376,4.8076875 L59.0143805,4.8076875 L59.0143805,1.7043125 L54.6523069,1.7043125 L54.6523069,4.8076875 L53.0197179,4.8076875 L53.0197179,7.8093125 L54.6523069,7.8093125 L54.6523069,14.34675 C54.6523069,17.2211875 56.2083683,18.0860625 58.8358161,18.0860625 Z M69.396626,15.16075 C70.7741229,15.16075 71.6159266,14.34675 71.6159266,11.6249375 L71.6159266,11.1670625 C71.6159266,8.0636875 70.6720861,7.5040625 69.3456076,7.5040625 C67.9170922,7.5040625 67.1007977,8.3689375 67.1007977,11.039875 L67.1007977,11.5231875 C67.1007977,14.55025 68.0446382,15.16075 69.396626,15.16075 Z M69.3711168,18.1369375 C64.9835339,18.1369375 62.6621965,15.7458125 62.6621965,11.548625 L62.6621965,11.243375 C62.6621965,6.766375 65.5447364,4.5533125 69.3711168,4.5533125 C73.7331904,4.5533125 76.080037,6.8426875 76.080037,11.1161875 L76.080037,11.4214375 C76.080037,15.923875 73.1719879,18.1369375 69.3711168,18.1369375 Z M77.5085524,3.306875 L81.9216444,3.306875 L81.9216444,0 L77.5085524,0 L77.5085524,3.306875 Z M77.5340616,17.908 L81.8961352,17.908 L81.8961352,4.78225 L77.5340616,4.78225 L77.5340616,17.908 Z M83.9113622,17.8825625 L88.2734359,17.8825625 L88.2734359,8.3435 C88.7836199,8.1145625 89.4723684,7.9110625 90.1100984,7.9110625 C91.1304665,7.9110625 91.564123,8.292625 91.564123,9.310125 L91.564123,17.8825625 L95.9006874,17.8825625 L95.9006874,8.64875 C95.9006874,8.5724375 95.8751782,8.4706875 95.8751782,8.3435 C96.5129082,8.089125 97.0741107,7.9110625 97.7118408,7.9110625 C98.7577181,7.9110625 99.1658653,8.292625 99.1658653,9.310125 L99.1658653,17.8825625 L103.50243,17.8825625 L103.50243,8.089125 C103.50243,5.4945 102.150442,4.5533125 99.9056322,4.5533125 C98.3240616,4.5533125 96.8445279,5.0620625 95.5435586,6.0286875 L95.4415217,6.0286875 C94.8548101,4.98575 93.8089328,4.5533125 92.3038898,4.5533125 C90.5947733,4.5533125 89.3193132,5.0620625 88.2224174,5.9269375 L88.0948714,5.9269375 L88.0948714,4.78225 L83.9113622,4.78225 L83.9113622,17.8825625 Z M111.537829,15.1861875 C113.09389,15.1861875 114.012221,14.499375 114.012221,11.6758125 L114.012221,11.2688125 C114.012221,8.547 113.170417,7.885625 111.690884,7.885625 C110.798062,7.885625 110.109313,8.14 109.726675,8.394375 L109.726675,14.702875 C110.109313,14.95725 110.798062,15.1861875 111.537829,15.1861875 Z M105.390111,21.723625 L105.390111,4.8076875 L109.57362,4.8076875 L109.57362,5.9015 L109.701166,5.9015 C110.568479,5.0620625 111.741902,4.57875 113.502037,4.57875 C116.052957,4.57875 118.450822,6.0795625 118.450822,10.8618125 L118.450822,11.1670625 C118.450822,16.330875 115.97643,18.1369375 112.379632,18.1369375 C111.053154,18.1369375 110.21135,17.8825625 109.726675,17.6790625 L109.726675,21.723625 L105.390111,21.723625 Z M119.955865,3.306875 L124.368957,3.306875 L124.368957,0 L119.955865,0 L119.955865,3.306875 Z M119.981375,17.908 L124.343448,17.908 L124.343448,4.78225 L119.981375,4.78225 L119.981375,17.908 Z M132.27681,7.4023125 C131.307461,7.4023125 130.389129,7.9619375 130.210565,9.9969375 L134.19,9.9969375 C134.19,8.089125 133.55227,7.4023125 132.27681,7.4023125 Z M132.761485,18.1369375 C128.093301,18.1369375 125.822982,15.7966875 125.822982,11.4723125 L125.822982,11.141625 C125.822982,7.0970625 128.348393,4.5533125 132.27681,4.5533125 C136.689902,4.5533125 138.348,7.02075 138.348,11.3196875 L138.348,12.4389375 L130.236074,12.4389375 C130.491166,14.499375 131.664589,15.0844375 133.88389,15.0844375 C135.439951,15.0844375 136.791939,14.702875 137.812307,14.295875 L137.812307,16.9668125 C136.817448,17.551875 135.184859,18.1369375 132.761485,18.1369375 Z M145.184467,10.429375 C146.204835,10.429375 146.766037,10.0478125 146.766037,8.8268125 L146.766037,8.6233125 C146.766037,7.275125 146.179326,6.969875 145.184467,6.969875 C144.138589,6.969875 143.577387,7.376875 143.577387,8.597875 L143.577387,8.801375 C143.577387,10.0478125 144.138589,10.429375 145.184467,10.429375 Z M145.031411,19.179875 C147.225203,19.179875 147.913951,18.6456875 147.913951,17.8825625 C147.913951,17.1194375 147.582332,17.043125 146.230344,17.043125 L143.449841,17.043125 C142.914148,17.2211875 142.557019,17.450125 142.557019,18.060625 C142.557019,18.772875 143.067203,19.179875 145.031411,19.179875 Z M145.056921,21.6981875 C140.541792,21.6981875 138.603092,20.5280625 138.603092,18.7474375 C138.603092,17.450125 139.64897,16.7633125 141.051976,16.330875 L141.051976,16.2036875 C140.235681,15.873 139.597951,15.3388125 139.597951,14.3721875 C139.597951,13.32925 140.2867,12.667875 141.23054,11.9810625 C140.133645,11.3196875 139.495915,10.327625 139.495915,8.8776875 L139.495915,8.7505 C139.495915,5.9778125 141.689706,4.5533125 145.184467,4.5533125 C146.05178,4.5533125 146.868074,4.629625 147.582332,4.78225 L151.995424,4.78225 L151.995424,7.22425 L150.337326,7.22425 C150.617927,7.63125 150.770982,8.03825 150.770982,8.64875 L150.770982,8.7759375 C150.770982,11.4723125 148.577191,12.7950625 145.184467,12.7950625 C144.470209,12.7950625 143.857988,12.7441875 143.271276,12.617 C143.118221,12.8205 143.016184,12.871375 143.016184,13.12575 C143.016184,13.583625 143.296786,13.73625 144.011043,13.73625 L147.760896,13.73625 C150.541399,13.73625 152.173988,14.7283125 152.173988,17.2211875 C152.173988,19.9684375 149.929178,21.6981875 145.056921,21.6981875 Z M159.342074,15.16075 C160.719571,15.16075 161.561375,14.34675 161.561375,11.6249375 L161.561375,11.1670625 C161.561375,8.0636875 160.617534,7.5040625 159.291056,7.5040625 C157.86254,7.5040625 157.046246,8.3689375 157.046246,11.039875 L157.046246,11.5231875 C157.046246,14.55025 157.990086,15.16075 159.342074,15.16075 Z M159.316565,18.1369375 C154.928982,18.1369375 152.607645,15.7458125 152.607645,11.548625 L152.607645,11.243375 C152.607645,6.766375 155.490185,4.5533125 159.316565,4.5533125 C163.678639,4.5533125 166.025485,6.8426875 166.025485,11.1161875 L166.025485,11.4214375 C166.025485,15.923875 163.117436,18.1369375 159.316565,18.1369375 Z M167.14789,18.569375 L171.331399,18.569375 L171.331399,14.7283125 L167.14789,14.7283125 L167.14789,18.569375 Z M173.091534,3.306875 L177.504626,3.306875 L177.504626,0 L173.091534,0 L173.091534,3.306875 Z M173.117043,17.908 L177.479117,17.908 L177.479117,4.78225 L173.117043,4.78225 L173.117043,17.908 Z M184.545166,18.0860625 C185.948172,18.0860625 186.917522,17.8316875 187.453215,17.5773125 L187.453215,14.7791875 C187.096086,14.8555 186.611412,14.906375 186.152246,14.906375 C185.106369,14.906375 184.723731,14.6265625 184.723731,13.7108125 L184.723731,7.8093125 L187.376688,7.8093125 L187.376688,4.8076875 L184.723731,4.8076875 L184.723731,1.7043125 L180.361657,1.7043125 L180.361657,4.8076875 L178.729068,4.8076875 L178.729068,7.8093125 L180.361657,7.8093125 L180.361657,14.34675 C180.361657,17.2211875 181.917718,18.0860625 184.545166,18.0860625 Z" id="prontoimpiego.it"></path>
                <path d="M0,36.38025 L0.816294479,36.38025 L0.816294479,30.16425 L0,30.16425 L0,36.38025 Z M3.75680987,36.38025 L7.31882214,36.38025 L7.31882214,35.6865 L4.57310435,35.6865 L4.57310435,30.16425 L3.75680987,30.16425 L3.75680987,36.38025 Z M14.8788223,36.38025 L15.6858407,36.38025 L15.6858407,30.86725 L17.5317793,30.86725 L17.5317793,30.16425 L13.0328836,30.16425 L13.0328836,30.86725 L14.8788223,30.86725 L14.8788223,36.38025 Z M22.1790922,36.49125 C23.6818162,36.49125 24.4331781,35.7975 24.4331781,34.19725 L24.4331781,30.16425 L23.6818162,30.16425 L23.6818162,34.16025 C23.6818162,35.47375 23.1994603,35.84375 22.2161965,35.84375 C21.2236567,35.84375 20.6763683,35.4645 20.6763683,34.1695 L20.6763683,30.16425 L19.8600738,30.16425 L19.8600738,34.21575 C19.8600738,35.7605 20.6949205,36.49125 22.1790922,36.49125 Z M29.6741598,36.482 C27.9859144,36.482 26.9469941,35.38125 26.9469941,33.3555 L26.9469941,33.17975 C26.9469941,31.25575 27.9859144,30.0625 29.7112641,30.0625 C31.4087856,30.0625 32.4291537,31.1725 32.4291537,33.189 L32.4291537,33.36475 C32.4291537,35.28875 31.4087856,36.482 29.6741598,36.482 Z M29.701988,35.816 C30.9728101,35.816 31.5572027,34.80775 31.5572027,33.49425 L31.5572027,33.19825 C31.5572027,31.75525 31.0655708,30.73775 29.6741598,30.73775 C28.4126138,30.73775 27.8282211,31.7275 27.8282211,33.041 L27.8282211,33.34625 C27.8282211,34.78925 28.3291291,35.816 29.701988,35.816 Z M41.1950433,36.482 C41.9185771,36.482 42.5029697,36.334 42.9389452,36.08425 L42.9389452,35.3905 C42.540074,35.5755 42.0669943,35.78825 41.3156323,35.78825 C39.9149452,35.78825 39.3491047,34.88175 39.3491047,33.34625 L39.3491047,33.01325 C39.3491047,31.40375 40.1653992,30.75625 41.2692519,30.75625 C41.8907489,30.75625 42.3452765,30.88575 42.8647366,31.08 L42.8647366,30.40475 C42.4844176,30.192 41.9835096,30.0625 41.3341844,30.0625 C39.7479758,30.0625 38.4678777,30.90425 38.4678777,33.14275 L38.4678777,33.3555 C38.4678777,35.4645 39.5346262,36.482 41.1950433,36.482 Z M47.6882949,36.49125 C49.1910188,36.49125 49.9423808,35.7975 49.9423808,34.19725 L49.9423808,30.16425 L49.1910188,30.16425 L49.1910188,34.16025 C49.1910188,35.47375 48.708663,35.84375 47.7253992,35.84375 C46.7328593,35.84375 46.185571,35.4645 46.185571,34.1695 L46.185571,30.16425 L45.3692765,30.16425 L45.3692765,34.21575 C45.3692765,35.7605 46.2041231,36.49125 47.6882949,36.49125 Z M52.8179637,36.38025 L52.8179637,30.16425 L54.6453502,30.16425 C56.0182091,30.16425 56.7324668,30.7655 56.7324668,31.931 C56.7324668,32.819 56.2872152,33.3 55.5544054,33.559 L55.5544054,33.60525 L57.1869944,36.38025 L56.2501109,36.38025 L54.747387,33.75325 L53.6342582,33.75325 L53.6342582,36.38025 L52.8179637,36.38025 Z M53.6342582,33.10575 L54.5989698,33.10575 C55.498749,33.10575 55.8697919,32.745 55.8697919,31.9495 C55.8697919,31.1725 55.4801968,30.86725 54.5896937,30.86725 L53.6342582,30.86725 L53.6342582,33.10575 Z M59.5152889,36.38025 L59.5152889,30.16425 L61.3426754,30.16425 C62.7155343,30.16425 63.429792,30.7655 63.429792,31.931 C63.429792,32.819 62.9845404,33.3 62.2517306,33.559 L62.2517306,33.60525 L63.8843196,36.38025 L62.9474361,36.38025 L61.4447122,33.75325 L60.3315834,33.75325 L60.3315834,36.38025 L59.5152889,36.38025 Z M60.3315834,33.10575 L61.296295,33.10575 C62.1960742,33.10575 62.5671171,32.745 62.5671171,31.9495 C62.5671171,31.1725 62.177522,30.86725 61.287019,30.86725 L60.3315834,30.86725 L60.3315834,33.10575 Z M66.2404423,36.38025 L67.0567368,36.38025 L67.0567368,30.16425 L66.2404423,30.16425 L66.2404423,36.38025 Z M72.362651,36.482 C73.0861847,36.482 73.6705774,36.334 74.1065528,36.08425 L74.1065528,35.3905 C73.7076816,35.5755 73.2346019,35.78825 72.4832399,35.78825 C71.0825528,35.78825 70.5167123,34.88175 70.5167123,33.34625 L70.5167123,33.01325 C70.5167123,31.40375 71.3330068,30.75625 72.4368596,30.75625 C73.0583565,30.75625 73.5128841,30.88575 74.0323442,31.08 L74.0323442,30.40475 C73.6520252,30.192 73.1511172,30.0625 72.5017921,30.0625 C70.9155835,30.0625 69.6354853,30.90425 69.6354853,33.14275 L69.6354853,33.3555 C69.6354853,35.4645 70.7022338,36.482 72.362651,36.482 Z M78.8559026,36.49125 C80.3586265,36.49125 81.1099884,35.7975 81.1099884,34.19725 L81.1099884,30.16425 L80.3586265,30.16425 L80.3586265,34.16025 C80.3586265,35.47375 79.8762707,35.84375 78.8930069,35.84375 C77.900467,35.84375 77.3531786,35.4645 77.3531786,34.1695 L77.3531786,30.16425 L76.5368842,30.16425 L76.5368842,34.21575 C76.5368842,35.7605 77.3717308,36.49125 78.8559026,36.49125 Z M83.9855713,36.38025 L87.5475836,36.38025 L87.5475836,35.6865 L84.8018658,35.6865 L84.8018658,30.16425 L83.9855713,30.16425 L83.9855713,36.38025 Z M92.2412769,36.49125 C93.7440008,36.49125 94.4953628,35.7975 94.4953628,34.19725 L94.4953628,30.16425 L93.7440008,30.16425 L93.7440008,34.16025 C93.7440008,35.47375 93.261645,35.84375 92.2783812,35.84375 C91.2858413,35.84375 90.738553,35.4645 90.738553,34.1695 L90.738553,30.16425 L89.9222585,30.16425 L89.9222585,34.21575 C89.9222585,35.7605 90.7571051,36.49125 92.2412769,36.49125 Z M97.3709457,36.38025 L98.1223076,36.38025 L98.1223076,31.2465 L98.1408598,31.2465 L99.8662095,36.38025 L100.626848,36.38025 L102.352197,31.2465 L102.380025,31.2465 L102.380025,36.38025 L103.205596,36.38025 L103.205596,30.16425 L102.008982,30.16425 L100.311461,35.30725 L100.283633,35.30725 L98.5675592,30.16425 L97.3709457,30.16425 L97.3709457,36.38025 Z M109.940026,36.38025 L110.691387,36.38025 L110.691387,31.29275 L110.70994,31.29275 L113.687559,36.38025 L114.531682,36.38025 L114.531682,30.16425 L113.78032,30.16425 L113.78032,34.99275 L113.761768,34.99275 L110.904737,30.16425 L109.940026,30.16425 L109.940026,36.38025 Z M117.444369,36.38025 L121.182627,36.38025 L121.182627,35.6865 L118.260664,35.6865 L118.260664,33.51275 L120.496197,33.51275 L120.496197,32.82825 L118.260664,32.82825 L118.260664,30.86725 L121.154799,30.86725 L121.154799,30.16425 L117.444369,30.16425 L117.444369,36.38025 Z M123.863412,36.38025 L127.425424,36.38025 L127.425424,35.6865 L124.679707,35.6865 L124.679707,30.16425 L123.863412,30.16425 L123.863412,36.38025 Z M129.84648,36.38025 L133.408492,36.38025 L133.408492,35.6865 L130.662774,35.6865 L130.662774,30.16425 L129.84648,30.16425 L129.84648,36.38025 Z M135.829547,36.38025 L139.567805,36.38025 L139.567805,35.6865 L136.645842,35.6865 L136.645842,33.51275 L138.881375,33.51275 L138.881375,32.82825 L136.645842,32.82825 L136.645842,30.86725 L139.539977,30.86725 L139.539977,30.16425 L135.829547,30.16425 L135.829547,36.38025 Z M145.43956,36.38025 L147.712198,30.16425 L148.500664,30.16425 L150.75475,36.38025 L149.901351,36.38025 L149.270578,34.632 L146.840247,34.632 L146.21875,36.38025 L145.43956,36.38025 Z M148.027584,31.25575 L147.081425,33.93825 L149.020124,33.93825 L148.055412,31.25575 L148.027584,31.25575 Z M152.57286,36.38025 L156.793474,36.38025 L156.793474,35.6865 L153.546848,35.6865 L153.546848,35.668 L156.904787,30.77475 L156.904787,30.16425 L152.814038,30.16425 L152.814038,30.86725 L155.921523,30.86725 L155.921523,30.88575 L152.57286,35.7605 L152.57286,36.38025 Z M159.372222,36.38025 L160.188517,36.38025 L160.188517,30.16425 L159.372222,30.16425 L159.372222,36.38025 Z M163.129032,36.38025 L166.86729,36.38025 L166.86729,35.6865 L163.945327,35.6865 L163.945327,33.51275 L166.18086,33.51275 L166.18086,32.82825 L163.945327,32.82825 L163.945327,30.86725 L166.839462,30.86725 L166.839462,30.16425 L163.129032,30.16425 L163.129032,36.38025 Z M169.548075,36.38025 L170.299437,36.38025 L170.299437,31.29275 L170.317989,31.29275 L173.295609,36.38025 L174.139732,36.38025 L174.139732,30.16425 L173.38837,30.16425 L173.38837,34.99275 L173.369817,34.99275 L170.512787,30.16425 L169.548075,30.16425 L169.548075,36.38025 Z M177.052419,36.38025 L177.052419,30.16425 L178.935462,30.16425 C180.818505,30.16425 181.857425,31.12625 181.857425,33.0965 L181.857425,33.2815 C181.857425,35.21475 180.957646,36.38025 178.954014,36.38025 L177.052419,36.38025 Z M177.868713,35.67725 L178.972566,35.67725 C180.354701,35.67725 180.976198,34.99275 180.976198,33.40175 L180.976198,33.0965 C180.976198,31.413 180.206284,30.8765 178.851977,30.8765 L177.868713,30.8765 L177.868713,35.67725 Z M184.417621,36.38025 L188.155879,36.38025 L188.155879,35.6865 L185.233916,35.6865 L185.233916,33.51275 L187.46945,33.51275 L187.46945,32.82825 L185.233916,32.82825 L185.233916,30.86725 L188.128051,30.86725 L188.128051,30.16425 L184.417621,30.16425 L184.417621,36.38025 Z" id="IL-TUO-CURRICULUM-NE"></path>
            </g>
        </g>
    </g>
</svg>