<svg class="logo__svg" width="162" height="33" viewBox="0 0 162 33" xmlns="http://www.w3.org/2000/svg">
  <g fill="none" fill-rule="evenodd">
    <path class="logo__svg__gnv" d="M9.84 17.1H9.8c-.83 1.75-1.9 2.57-4.13 2.57-4.1 0-5.6-3.07-5.6-9.8 0-6.74 1.9-9.8 6.26-9.8 4.72 0 5.5 3.72 5.5 5.44v.35H9V5.4C9 4 8.42 2.34 6.36 2.34 4.22 2.34 3.1 3.77 3.1 9.8c0 6.06 1 7.6 3.02 7.6 2.3.02 3.14-1.64 3.14-5.76H6.1V9.37h6v9.93H9.85v-2.2h-.01zM14.7.45h3.66l5.46 14.05h.05V.43h2.85V19.3h-3.67L17.6 4.88h-.06V19.3H14.7V.44v.01zm13.42 0h3.2L34.5 15.5h.06L37.93.43h3.2L36.37 19.3h-3.83L28.12.44v.01z" fill="#151717"/>
    <path class="logo__svg__and" d="M51.83 17c-1.05 1.58-2.7 2.62-5 2.62-3.25 0-5.28-2.23-5.28-5 0-1.98 1-3.54 2.72-4.86l1.55-1.18c-1.35-1.78-2.16-3.18-2.16-4.65 0-2.28 1.76-3.5 3.85-3.5 2.2 0 3.62 1.4 3.62 3.5 0 1.53-.63 2.95-3.32 4.85l4.06 5.7c.47-1.15.66-2.4.68-3.56h1.6c0 1.64-.5 3.4-1.33 4.9l2.5 3.48h-1.8l-1.7-2.3h.01zM46.6 9.63c-2.65 1.85-3.36 3.33-3.36 4.8 0 2.25 1.74 3.76 3.82 3.76 1.53 0 3.22-.94 3.96-2.4l-4.4-6.17-.02.01zM47 7.7c2.1-1.58 2.54-2.8 2.54-3.83 0-1.2-.93-2.1-2.14-2.1-1.24 0-2.16.9-2.16 2.1 0 1 .7 2.4 1.77 3.83H47z" fill="#D91E44"/>
    <path class="logo__svg__partners" d="M56.7.44h5.95c3.6 0 5.2 2.27 5.2 5.5 0 3.37-1.98 5.57-5.52 5.57H59.7v7.8h-3V.44zm3 8.8h2.13c1.6 0 3-.88 3-3.25 0-2.05-.8-3.3-3.2-3.3h-1.94v6.53l.01.02zM72.46.43h3.84l4.97 18.86h-3.13l-1.17-4.62h-5.5l-1.22 4.62H67.1L72.48.44l-.02-.01zm4 11.83l-2.16-9.3h-.04l-2.24 9.3h4.45-.01zM82.6.44h6.64C91.88.44 94 1.76 94 5.3c0 2.43-1.07 4.3-3.12 4.62v.05c1.87.2 2.84 1.22 2.95 3.86.02 1.22.05 2.7.1 3.83.06.92.5 1.37.9 1.64h-3.4c-.3-.34-.42-.93-.5-1.67-.1-1.13-.08-2.2-.13-3.56-.06-2.06-.7-2.96-2.75-2.96H85.6v8.2h-3V.44zm5.4 8.4c1.93 0 3-1.16 3-3.07 0-2-.86-3.06-2.84-3.06H85.6v6.14H88v-.01zm11.38-5.87h-4.5V.44h11.9v2.53h-4.4V19.3h-3V2.97zM108.5.44h3.67l5.46 14.05h.05V.43h2.85V19.3h-3.67L111.4 4.88h-.05V19.3h-2.85V.44zm15.15 0h10.17v2.53h-7.17V8.2h6.75v2.54h-6.75v6.02h7.38v2.54h-10.38V.44zm12.68 0h6.65c2.63 0 4.77 1.32 4.77 4.86 0 2.43-1.08 4.3-3.14 4.62v.05c1.88.2 2.86 1.22 2.96 3.86.03 1.22.06 2.7.1 3.83.06.92.5 1.37.9 1.64h-3.4c-.28-.34-.42-.93-.5-1.67-.1-1.13-.08-2.2-.13-3.56-.05-2.06-.68-2.96-2.74-2.96h-2.46v8.2h-3V.44h-.01zm5.4 8.4c1.93 0 3-1.16 3-3.07 0-2-.86-3.06-2.83-3.06h-2.56v6.14h2.4l-.01-.01zm11.1 4.62v.48c0 2.3 1 3.45 3.07 3.45 1.9 0 2.85-1.35 2.85-2.75 0-1.98-1-2.85-2.7-3.36l-2.05-.72c-2.74-1.06-3.92-2.48-3.92-5.18 0-3.43 2.32-5.33 5.85-5.33 4.82 0 5.32 3 5.32 4.96v.43h-3v-.4c0-1.72-.77-2.72-2.64-2.72-1.28 0-2.52.7-2.52 2.72 0 1.6.82 2.43 2.82 3.2l2.03.74c2.66.95 3.83 2.4 3.83 5 0 4-2.43 5.67-6.23 5.67-4.66 0-5.72-3.12-5.72-5.76v-.44h3.02l-.01.01z" fill="#151717"/>
    <path class="logo__svg__design" d="M20 32.72v-7.84h2.68c2.44 0 4 1.7 4 3.93 0 2.24-1.56 3.92-4 3.92H20v-.01zm5.68-3.9c0-1.7-1.06-3.07-3-3.07h-1.7v6.1h1.7c1.9 0 3-1.36 3-3.04v.01zm3.12 3.9v-7.84h5.12v.87h-4.15v2.53h4.07v.87h-4.07v2.7h4.15v.87H28.8zm6.8-1.1l.57-.76c.5.6 1.35 1.13 2.45 1.13 1.4 0 1.84-.76 1.84-1.37 0-2.02-4.63-.9-4.63-3.7 0-1.28 1.15-2.18 2.7-2.18 1.2 0 2.1.4 2.77 1.1l-.6.72c-.58-.65-1.4-.94-2.25-.94-.93 0-1.6.5-1.6 1.25 0 1.76 4.62.75 4.62 3.68 0 1.13-.77 2.3-2.88 2.3-1.36 0-2.37-.52-3-1.25l.01.02zm7.9-6.74h.98v7.84h-.97v-7.84h-.01zm3.08 3.93c0-2.44 1.8-4.05 4.02-4.05 1.4 0 2.36.6 3.04 1.46l-.77.5c-.5-.63-1.33-1.08-2.27-1.08-1.7 0-3 1.3-3 3.2 0 1.84 1.3 3.17 3 3.17.94 0 1.7-.46 2.1-.86v-1.58h-2.68v-.87h3.66v2.8c-.73.83-1.8 1.37-3.08 1.37-2.23 0-4.02-1.63-4.02-4.06zm14.8 3.92l-4.57-6.25v6.25h-.96v-7.84h1l4.5 6.12v-6.12h.98v7.84h-.95zm9.72-3.36v2.27h-1.36v-2.27h-1.97v-1.23h1.97v-2.18h1.36v2.18h1.97v1.23H71.1z" fill="#151717"/>
    <path class="logo__svg__frontend" d="M78.53 32.72v-7.84h5.13v.87H79.5v2.53h4.08v.87H79.5v3.57h-.97zm11.57 0l-1.98-3.12h-1.57v3.12h-.97v-7.84h3.14c1.43 0 2.47.92 2.47 2.36 0 1.4-1 2.2-2.06 2.28l2.1 3.2H90.1zm.08-5.48c0-.9-.65-1.5-1.58-1.5h-2.05v3h2.05c.93 0 1.58-.6 1.58-1.5zm2.8 1.57c0-2.3 1.58-4.05 3.9-4.05 2.3 0 3.88 1.74 3.88 4.06 0 2.32-1.58 4.06-3.9 4.06-2.3 0-3.87-1.74-3.87-4.05l-.01-.02zm6.77 0c0-1.83-1.13-3.18-2.88-3.18-1.76 0-2.88 1.35-2.88 3.2 0 1.8 1.1 3.17 2.87 3.17 1.75 0 2.88-1.37 2.88-3.2l.01.01zm8.64 3.92l-4.57-6.25v6.25h-.97v-7.84h1l4.5 6.12v-6.12h.97v7.84h-.94.01zm5.28 0v-6.97h-2.48v-.87h5.93v.87h-2.48v6.97h-.97zm5.33 0v-7.84h5.13v.87h-4.15v2.53h4.07v.87h-4.07v2.7h4.15v.87H119zm12.8 0l-4.56-6.25v6.25h-.98v-7.84h1l4.5 6.12v-6.12h.98v7.84h-.94zm3.35 0v-7.84h2.67c2.44 0 4 1.7 4 3.93 0 2.24-1.56 3.92-4 3.92h-2.67v-.01zm5.67-3.9c0-1.7-1.06-3.07-3-3.07h-1.7v6.1h1.7c1.9 0 3-1.36 3-3.04v.01z" fill="#D91E44"/>
  </g>
</svg>