<?xml version="1.0" encoding="UTF-8" standalone="no"?>
<svg width="74px" height="96px" viewBox="0 0 74 96" version="1.1" xmlns="http://www.w3.org/2000/svg" xmlns:xlink="http://www.w3.org/1999/xlink">
    <!-- Generator: Sketch 42 (36781) - http://www.bohemiancoding.com/sketch -->
    <title>placeholder</title>
    <desc>Created with Sketch.</desc>
    <defs>
        <polygon id="path-1" points="0.0120652174 95.988 74 95.988 74 0 0.0120652174 0"></polygon>
    </defs>
    <g id="Home-generica" stroke="none" stroke-width="1" fill="none" fill-rule="evenodd">
        <g id="Home_generale" transform="translate(-832.000000, -985.000000)">
            <g id="placeholder" transform="translate(832.000000, 985.000000)">
                <g id="Group-3">
                    <mask id="mask-2" fill="white">
                        <use xlink:href="#path-1"></use>
                    </mask>
                    <g id="Clip-2"></g>
                    <path d="M37,92.2544 C31.1781304,86.9904 3.2173913,60.5456 3.2173913,38.4 C3.2173913,16.3584 15.8472609,3.2 37,3.2 C58.1527391,3.2 70.7826087,16.3584 70.7826087,38.4 C70.7826087,60.5456 42.8218696,86.9904 37,92.2544 Z M37,0 C13.8315652,0 0,14.3552 0,38.4 C0,64.4592 34.4807826,94.352 35.9495217,95.6112 C36.2503478,95.8704 36.6251739,96 37,96 C37.3748261,96 37.7496522,95.8704 38.0504783,95.6112 C39.5192174,94.352 74,64.4592 74,38.4 C74,14.3552 60.1684348,0 37,0 L37,0 Z" id="Fill-1" fill="#153256" mask="url(#mask-2)"></path>
                </g>
                <path d="M37,59.2 C23.6944783,59.2 12.8695652,48.4336 12.8695652,35.2 C12.8695652,21.9664 23.6944783,11.2 37,11.2 C50.3055217,11.2 61.1304348,21.9664 61.1304348,35.2 C61.1304348,48.4336 50.3055217,59.2 37,59.2 Z M37,8 C21.920087,8 9.65217391,20.2016 9.65217391,35.2 C9.65217391,50.1984 21.920087,62.4 37,62.4 C52.079913,62.4 64.3478261,50.1984 64.3478261,35.2 C64.3478261,20.2016 52.079913,8 37,8 L37,8 Z" id="Fill-4" fill="#153256"></path>
                <path d="M24.1304348,43.2 L24.1304348,35.1584 C25.4785217,36.1744 27.1386957,36.8 28.9565217,36.8 L35.3913043,36.8 L35.3913043,38.4 L38.6086957,38.4 L38.6086957,36.8 L45.0434783,36.8 C46.8613043,36.8 48.5214783,36.1744 49.8695652,35.1584 L49.8695652,43.2 L24.1304348,43.2 Z M24.1304348,27.2 L49.8695652,27.2 L49.8695652,28.8 C49.8695652,31.4464 47.7042609,33.6 45.0434783,33.6 L28.9565217,33.6 C26.2957391,33.6 24.1304348,31.4464 24.1304348,28.8 L24.1304348,27.2 Z M33.7826087,24 L40.2173913,24 L40.2173913,20.8 L33.7826087,20.8 L33.7826087,24 Z M51.4782609,24 L43.4347826,24 L43.4347826,20.8 C43.4347826,19.0352 41.9917826,17.6 40.2173913,17.6 L33.7826087,17.6 C32.0082174,17.6 30.5652174,19.0352 30.5652174,20.8 L30.5652174,24 L22.5217391,24 C21.6337391,24 20.9130435,24.7168 20.9130435,25.6 L20.9130435,44.8 C20.9130435,45.6832 21.6337391,46.4 22.5217391,46.4 L51.4782609,46.4 C52.3662609,46.4 53.0869565,45.6832 53.0869565,44.8 L53.0869565,25.6 C53.0869565,24.7168 52.3662609,24 51.4782609,24 L51.4782609,24 Z" id="Fill-5" fill="#153256"></path>
                <polygon id="Fill-6" fill="#153256" points="28.9565217 52.8 32.173913 52.8 32.173913 49.6 28.9565217 49.6"></polygon>
                <polygon id="Fill-7" fill="#153256" points="35.3913043 52.8 38.6086957 52.8 38.6086957 49.6 35.3913043 49.6"></polygon>
                <polygon id="Fill-8" fill="#153256" points="41.826087 52.8 45.0434783 52.8 45.0434783 49.6 41.826087 49.6"></polygon>
                <polygon id="Fill-9" fill="#153256" points="56.3043478 91.2 59.5217391 91.2 59.5217391 88 56.3043478 88"></polygon>
                <polygon id="Fill-10" fill="#153256" points="62.7391304 91.2 65.9565217 91.2 65.9565217 88 62.7391304 88"></polygon>
                <polygon id="Fill-11" fill="#153256" points="69.173913 91.2 72.3913043 91.2 72.3913043 88 69.173913 88"></polygon>
                <polygon id="Fill-12" fill="#153256" points="1.60869565 91.2 4.82608696 91.2 4.82608696 88 1.60869565 88"></polygon>
                <polygon id="Fill-13" fill="#153256" points="8.04347826 91.2 11.2608696 91.2 11.2608696 88 8.04347826 88"></polygon>
                <polygon id="Fill-14" fill="#153256" points="14.4782609 91.2 17.6956522 91.2 17.6956522 88 14.4782609 88"></polygon>
            </g>
        </g>
    </g>
</svg>