<?xml version="1.0" encoding="UTF-8" standalone="no"?>
<svg width="100px" height="93px" viewBox="0 0 100 93" version="1.1" xmlns="http://www.w3.org/2000/svg" xmlns:xlink="http://www.w3.org/1999/xlink">
    <!-- Generator: Sketch 42 (36781) - http://www.bohemiancoding.com/sketch -->
    <title>responsive</title>
    <desc>Created with Sketch.</desc>
    <defs>
        <polygon id="path-1" points="0 93 100 93 100 0.00830357143 0 0.00830357143"></polygon>
    </defs>
    <g id="Home-generica" stroke="none" stroke-width="1" fill="none" fill-rule="evenodd">
        <g id="Home_generale" transform="translate(-213.000000, -987.000000)">
            <g id="responsive" transform="translate(213.000000, 987.000000)">
                <g id="Group-3">
                    <mask id="mask-2" fill="white">
                        <use xlink:href="#path-1"></use>
                    </mask>
                    <g id="Clip-2"></g>
                    <path d="M95,89.6785714 L76.6666667,89.6785714 C75.7483333,89.6785714 75,88.9329107 75,88.0178571 L75,84.6964286 L96.6666667,84.6964286 L96.6666667,88.0178571 C96.6666667,88.9329107 95.9183333,89.6785714 95,89.6785714 Z M46.6666667,66.4285714 L71.6666667,66.4285714 L71.6666667,56.4642857 L46.6666667,56.4642857 L46.6666667,66.4285714 Z M61,78.0535714 L46.6666667,78.0535714 L46.6666667,69.75 L58.7266667,69.75 L61,78.0535714 Z M61.96,84.0437679 C61.6416667,84.4589464 61.16,84.6964286 60.635,84.6964286 L46.6666667,84.6964286 L46.6666667,81.375 L61.9083333,81.375 L62.2433333,82.5989464 C62.3816667,83.1021429 62.2783333,83.6285893 61.96,84.0437679 Z M41.6666667,89.6785714 L5,89.6785714 C4.08166667,89.6785714 3.33333333,88.9329107 3.33333333,88.0178571 L3.33333333,84.6964286 L43.3333333,84.6964286 L43.3333333,88.0178571 C43.3333333,88.9329107 42.585,89.6785714 41.6666667,89.6785714 Z M5,36.5357143 L41.6666667,36.5357143 C42.585,36.5357143 43.3333333,37.281375 43.3333333,38.1964286 L43.3333333,41.5178571 L3.33333333,41.5178571 L3.33333333,38.1964286 C3.33333333,37.281375 4.08166667,36.5357143 5,36.5357143 Z M3.33333333,81.375 L43.3333333,81.375 L43.3333333,44.8392857 L3.33333333,44.8392857 L3.33333333,81.375 Z M8.33333333,8.30357143 C8.33333333,5.55675 10.5766667,3.32142857 13.3333333,3.32142857 L86.6666667,3.32142857 C89.4233333,3.32142857 91.6666667,5.55675 91.6666667,8.30357143 L91.6666667,44.8392857 L76.6666667,44.8392857 C73.91,44.8392857 71.6666667,47.0746071 71.6666667,49.8214286 L71.6666667,53.1428571 L46.6666667,53.1428571 L46.6666667,38.1964286 C46.6666667,35.4496071 44.4233333,33.2142857 41.6666667,33.2142857 L8.33333333,33.2142857 L8.33333333,8.30357143 Z M75,81.375 L96.6666667,81.375 L96.6666667,56.4642857 L75,56.4642857 L75,81.375 Z M96.6666667,49.8214286 L96.6666667,53.1428571 L75,53.1428571 L75,49.8214286 C75,48.906375 75.7483333,48.1607143 76.6666667,48.1607143 L95,48.1607143 C95.9183333,48.1607143 96.6666667,48.906375 96.6666667,49.8214286 Z M95,44.8392857 L95,8.30357143 C95,3.72498214 91.2616667,0 86.6666667,0 L13.3333333,0 C8.73833333,0 5,3.72498214 5,8.30357143 L5,33.2142857 C2.24333333,33.2142857 0,35.4496071 0,38.1964286 L0,88.0178571 C0,90.7646786 2.24333333,93 5,93 L41.6666667,93 C44.4233333,93 46.6666667,90.7646786 46.6666667,88.0178571 L60.635,88.0178571 C62.2066667,88.0178571 63.655,87.30375 64.6083333,86.059875 C65.5616667,84.816 65.8716667,83.235 65.4583333,81.7254107 L62.1816667,69.75 L71.6666667,69.75 L71.6666667,88.0178571 C71.6666667,90.7646786 73.91,93 76.6666667,93 L95,93 C97.7566667,93 100,90.7646786 100,88.0178571 L100,49.8214286 C100,47.0746071 97.7566667,44.8392857 95,44.8392857 L95,44.8392857 Z" id="Fill-1" fill="#153256" mask="url(#mask-2)"></path>
                </g>
                <polyline id="Fill-4" fill="#153256" points="8.82145833 68.5744219 15.488125 61.9315647 17.8452083 64.2802299 11.1783333 70.9230871 8.82145833 68.5744219"></polyline>
                <polyline id="Fill-5" fill="#153256" points="15.4875 73.5569799 35.4877083 53.6279933 37.8447917 55.9766585 17.844375 75.9054375 15.4875 73.5569799"></polyline>
                <polyline id="Fill-6" fill="#153256" points="18.8204167 58.6122121 28.82 48.6483415 31.1770833 50.9967991 21.1775 60.9606696 18.8204167 58.6122121"></polyline>
                <polyline id="Fill-7" fill="#153256" points="78.8189583 68.5767054 87.1510417 60.2743795 89.5079167 62.6230446 81.1760417 70.9253705 78.8189583 68.5767054"></polyline>
                <polyline id="Fill-8" fill="#153256" points="82.1516667 75.2266205 90.48375 66.9242946 92.840625 69.2729598 84.50875 77.5750781 82.1516667 75.2266205"></polyline>
                <polyline id="Fill-9" fill="#153256" points="43.82 28.7187321 53.8195833 18.7548616 56.1764583 21.1035268 46.176875 31.0673973 43.82 28.7187321"></polyline>
                <polyline id="Fill-10" fill="#153256" points="58.8210417 25.397096 68.820625 15.4332254 71.1777083 17.7818906 61.178125 27.7457612 58.8210417 25.397096"></polyline>
                <polyline id="Fill-11" fill="#153256" points="48.8195833 35.3636652 55.4864583 28.7206004 57.8435417 31.0692656 51.1766667 37.7121228 48.8195833 35.3636652"></polyline>
                <polyline id="Fill-12" fill="#153256" points="57.1435417 15.4539844 63.826875 8.79452009 66.18375 11.1431853 59.5004167 17.8026496 57.1435417 15.4539844"></polyline>
                <polygon id="Fill-13" fill="#153256" points="11.6666667 9.96428571 15 9.96428571 15 6.64285714 11.6666667 6.64285714"></polygon>
                <polygon id="Fill-14" fill="#153256" points="18.3333333 9.96428571 21.6666667 9.96428571 21.6666667 6.64285714 18.3333333 6.64285714"></polygon>
                <polygon id="Fill-15" fill="#153256" points="25 9.96428571 28.3333333 9.96428571 28.3333333 6.64285714 25 6.64285714"></polygon>
            </g>
        </g>
    </g>
</svg>